<svg xmlns="http://www.w3.org/2000/svg" fill="none" viewBox="-0.5 -0.5 16 16" stroke-linecap="round" stroke-linejoin="round" stroke="#000000" id="Music--Streamline-Mynaui" height="16" width="16">
  <desc>
    Music Streamline Icon: https://streamlinehq.com
  </desc>
  <path d="M5.390625 11.03125c0 0.98375 -0.7875 1.78125 -1.7574999999999998 1.78125C2.661875 12.8125 1.875 12.015 1.875 11.03125c0 -0.983125 0.7875 -1.7806250000000001 1.7581250000000002 -1.7806250000000001 0.970625 0 1.7574999999999998 0.7975 1.7574999999999998 1.78125m0 0V3.41375c0 -0.325 0.24625000000000002 -0.59625 0.568125 -0.6256249999999999l6.484375 -0.5974999999999999A0.62625 0.62625 0 0 1 13.125 2.81625V10.318750000000001m0 0c0 0.983125 -0.7875 1.78125 -1.7574999999999998 1.78125 -0.9712500000000001 0 -1.7581250000000002 -0.798125 -1.7581250000000002 -1.78125 0 -0.98375 0.7875 -1.78125 1.7581250000000002 -1.78125 0.970625 0 1.7574999999999998 0.7975 1.7574999999999998 1.78125" stroke-width="1"></path>
</svg>